HIERARCHY
ROOT hip
{
  OFFSET 0 0 0
  CHANNELS 6 Xposition Yposition Zposition Zrotation Yrotation Xrotation
  JOINT abdomen
  {
    OFFSET 0 20.6881 -0.73152
    CHANNELS 3 Zrotation Xrotation Yrotation
    JOINT chest
    {
      OFFSET 0 11.7043 -0.48768
      CHANNELS 3 Zrotation Xrotation Yrotation
      JOINT neck
      {
        OFFSET 0 22.1894 -2.19456
        CHANNELS 3 Zrotation Xrotation Yrotation
        JOINT head
        {
          OFFSET -0.24384 7.07133 1.2192
          CHANNELS 3 Zrotation Xrotation Yrotation
          JOINT leftEye
          {
            OFFSET 4.14528 8.04674 8.04672
            CHANNELS 3 Zrotation Xrotation Yrotation
            End Site
            {
              OFFSET 1 0 0
            }
          }
          JOINT rightEye
          {
            OFFSET -3.6576 8.04674 8.04672
            CHANNELS 3 Zrotation Xrotation Yrotation
            End Site
            {
              OFFSET 1 0 0
            }
          }
        }
      }
      JOINT rCollar
      {
        OFFSET -2.68224 19.2634 -4.8768
        CHANNELS 3 Zrotation Xrotation Yrotation
        JOINT rShldr
        {
          OFFSET -8.77824 -1.95073 1.46304
          CHANNELS 3 Zrotation Xrotation Yrotation
          JOINT rForeArm
          {
            OFFSET -28.1742 -1.7115 0.48768
            CHANNELS 3 Zrotation Xrotation Yrotation
            JOINT rHand
            {
              OFFSET -22.5879 0.773209 7.07136
              CHANNELS 3 Zrotation Xrotation Yrotation
              JOINT rThumb1
              {
                OFFSET -1.2192 -0.487915 3.41376
                CHANNELS 3 Zrotation Xrotation Yrotation
                JOINT rThumb2
                {
                  OFFSET -3.37035 -0.52449 3.41376
                  CHANNELS 3 Zrotation Xrotation Yrotation
                  End Site
                  {
                    OFFSET -1.78271 -1.18214 1.43049
                  }
                }
              }
              JOINT rIndex1
              {
                OFFSET -7.75947 0.938293 5.60832
                CHANNELS 3 Zrotation Xrotation Yrotation
                JOINT rIndex2
                {
                  OFFSET -2.54057 -0.884171 1.56538
                  CHANNELS 3 Zrotation Xrotation Yrotation
                  End Site
                  {
                    OFFSET -1.62519 -0.234802 1.16502
                  }
                }
              }
              JOINT rMid1
              {
                OFFSET -8.24714 1.18213 3.41376
                CHANNELS 3 Zrotation Xrotation Yrotation
                JOINT rMid2
                {
                  OFFSET -3.10165 -0.590103 1.0647
                  CHANNELS 3 Zrotation Xrotation Yrotation
                  End Site
                  {
                    OFFSET -2.48547 -0.328903 0.83742
                  }
                }
              }
              JOINT rRing1
              {
                OFFSET -8.82822 0.546677 1.51678
                CHANNELS 3 Zrotation Xrotation Yrotation
                JOINT rRing2
                {
                  OFFSET -2.60934 -0.819778 -0.0198488
                  CHANNELS 3 Zrotation Xrotation Yrotation
                  End Site
                  {
                    OFFSET -2.33842 -0.294052 0.168128
                  }
                }
              }
              JOINT rPinky1
              {
                OFFSET -8.27202 -0.0477905 -0.4584
                CHANNELS 3 Zrotation Xrotation Yrotation
                JOINT rPinky2
                {
                  OFFSET -1.82734 -0.647385 -0.700984
                  CHANNELS 3 Zrotation Xrotation Yrotation
                  End Site
                  {
                    OFFSET -1.69225 -0.51767 -0.607171
                  }
                }
              }
            }
          }
        }
      }
      JOINT lCollar
      {
        OFFSET 2.68224 19.2634 -4.8768
        CHANNELS 3 Zrotation Xrotation Yrotation
        JOINT lShldr
        {
          OFFSET 8.77824 -1.95073 1.46304
          CHANNELS 3 Zrotation Xrotation Yrotation
          JOINT lForeArm
          {
            OFFSET 28.1742 -1.7115 0.48768
            CHANNELS 3 Zrotation Xrotation Yrotation
            JOINT lHand
            {
              OFFSET 22.5879 0.773209 7.07136
              CHANNELS 3 Zrotation Xrotation Yrotation
              JOINT lThumb1
              {
                OFFSET 1.2192 -0.487915 3.41376
                CHANNELS 3 Zrotation Xrotation Yrotation
                JOINT lThumb2
                {
                  OFFSET 3.37035 -0.52449 3.41376
                  CHANNELS 3 Zrotation Xrotation Yrotation
                  End Site
                  {
                    OFFSET 1.78271 -1.18214 1.43049
                  }
                }
              }
              JOINT lIndex1
              {
                OFFSET 7.75947 0.938293 5.60832
                CHANNELS 3 Zrotation Xrotation Yrotation
                JOINT lIndex2
                {
                  OFFSET 2.54057 -0.884171 1.56538
                  CHANNELS 3 Zrotation Xrotation Yrotation
                  End Site
                  {
                    OFFSET 1.62519 -0.234802 1.16502
                  }
                }
              }
              JOINT lMid1
              {
                OFFSET 8.24714 1.18213 3.41376
                CHANNELS 3 Zrotation Xrotation Yrotation
                JOINT lMid2
                {
                  OFFSET 3.10165 -0.590103 1.0647
                  CHANNELS 3 Zrotation Xrotation Yrotation
                  End Site
                  {
                    OFFSET 2.48547 -0.328903 0.83742
                  }
                }
              }
              JOINT lRing1
              {
                OFFSET 8.82822 0.546677 1.51678
                CHANNELS 3 Zrotation Xrotation Yrotation
                JOINT lRing2
                {
                  OFFSET 2.60934 -0.819778 -0.0198488
                  CHANNELS 3 Zrotation Xrotation Yrotation
                  End Site
                  {
                    OFFSET 2.33842 -0.294052 0.168128
                  }
                }
              }
              JOINT lPinky1
              {
                OFFSET 8.27202 -0.0477905 -0.4584
                CHANNELS 3 Zrotation Xrotation Yrotation
                JOINT lPinky2
                {
                  OFFSET 1.82734 -0.647385 -0.700984
                  CHANNELS 3 Zrotation Xrotation Yrotation
                  End Site
                  {
                    OFFSET 1.69225 -0.51767 -0.607171
                  }
                }
              }
            }
          }
        }
      }
    }
  }
  JOINT rButtock
  {
    OFFSET -8.77824 4.35084 1.2192
    CHANNELS 3 Zrotation Xrotation Yrotation
    JOINT rThigh
    {
      OFFSET 0 -1.70687 -2.19456
      CHANNELS 3 Zrotation Xrotation Yrotation
      JOINT rShin
      {
        OFFSET 0 -36.8199 0.73152
        CHANNELS 3 Zrotation Xrotation Yrotation
        JOINT rFoot
        {
          OFFSET 0.73152 -45.1104 -5.12064
          CHANNELS 3 Zrotation Xrotation Yrotation
          End Site
          {
            OFFSET -1.1221 -3.69964 12.103
          }
        }
      }
    }
  }
  JOINT lButtock
  {
    OFFSET 8.77824 4.35084 1.2192
    CHANNELS 3 Zrotation Xrotation Yrotation
    JOINT lThigh
    {
      OFFSET 0 -1.70687 -2.19456
      CHANNELS 3 Zrotation Xrotation Yrotation
      JOINT lShin
      {
        OFFSET 0 -36.8199 0.73152
        CHANNELS 3 Zrotation Xrotation Yrotation
        JOINT lFoot
        {
          OFFSET -0.73152 -45.1104 -5.12064
          CHANNELS 3 Zrotation Xrotation Yrotation
          End Site
          {
            OFFSET 1.1221 -3.69964 12.103
          }
        }
      }
    }
  }
}
MOTION
Frames:	4
Frame Time:	0.03333
0.05214102379364265 58.68042961257316 0.38423704087497457 -77.9644775390625 -0.46562278270721436 -3.971789836883545 -81.81136322021484 0.09511470049619675 49.817359924316406 81.34424591064453 0.17278952896595 30.74766731262207 -84.2680892944336 0.06614932417869568 72.92778778076172 83.33824157714844 -0.4052869379520416 68.55644989013672 21.338808059692383 0.005150816403329372 -54.503177642822266 -4.78860330581665 0.029658600687980652 -121.37419128417969 -29.22844886779785 -0.02923833206295967 -48.72455596923828 89.84172058105469 -0.8442966341972351 -124.3697280883789 -88.84066772460938 -0.5671676397323608 179.7285919189453 -78.03752899169922 -1.0728332996368408 3.065542459487915 -41.919132232666016 0.04775412380695343 71.59646606445312 -27.14215087890625 -0.19260485470294952 41.10890579223633 45.51029968261719 -0.1406269073486328 150.7922821044922 88.3100357055664 -0.051116421818733215 88.62576293945312 2.928745985031128 -0.001149446121416986 170.360107421875 88.8213882446289 0.1400352269411087 83.73148345947266 30.836685180664062 -0.07258529216051102 24.523448944091797 88.53488159179688 0.04243526607751846 88.74381256103516 -34.368927001953125 0.18298959732055664 -145.88514709472656 85.95429229736328 0.055698733776807785 5.066187381744385 21.409435272216797 0.13508161902427673 58.05754470825195 -89.39424133300781 -0.9196577072143555 -19.46671485900879 88.19300079345703 -0.17142009735107422 -178.13670349121094 72.89093780517578 0.4886043667793274 -40.10908126831055 13.884397506713867 -0.07838284969329834 -157.69302368164062 54.5582389831543 0.022028854116797447 87.46202087402344 -82.73724365234375 0.10889825969934464 17.19662857055664 -86.1456298828125 0.1068483367562294 102.35688781738281 5.572868824005127 0.004061827901750803 26.66584014892578 -89.43484497070312 -0.162417471408844 51.175716400146484 -30.682992935180664 -0.04686897620558739 85.71504974365234 -89.11463165283203 -0.10704939812421799 110.49742889404297 -18.411489486694336 0.03606211766600609 -4.931039333343506 -83.77088928222656 0.1335529386997223 112.51056671142578 3.326967239379883 -0.19896171987056732 71.4189224243164 -89.76809692382812 -0.2804124653339386 -1.340511441230774 -81.26869201660156 -0.28490301966667175 172.16128540039062 -85.84337615966797 -0.02297346107661724 -86.98155212402344 10.058145523071289 -0.06976357102394104 10.154804229736328 87.74849700927734 0.519643247127533 -173.4683380126953 59.36536407470703 0.4278210401535034 1.4718012809753418 82.98091125488281 0.1493576169013977 -51.64173126220703
-0.41293931003636647 62.41469210730506 -0.18977830019268524 -83.24443817138672 -2.999410390853882 175.427734375 -56.31615447998047 0.39621472358703613 -171.43942260742188 86.29349517822266 0.18407845497131348 -10.11128044128418 -84.54844665527344 0.059283919632434845 -29.430635452270508 88.83841705322266 -0.18874061107635498 -119.98959350585938 4.567467212677002 0.0027843692805618048 62.3670539855957 -5.5771894454956055 0.03517995774745941 147.71141052246094 -29.87371826171875 0.18044278025627136 116.0142593383789 89.92453002929688 0.4710468351840973 87.89945220947266 -89.65007019042969 0.0474596731364727 -87.46101379394531 -80.28946685791016 1.171133041381836 27.147493362426758 -25.672277450561523 -0.07677731662988663 10.389902114868164 -7.764212131500244 -0.2402583509683609 144.45396423339844 -4.586710453033447 0.09987214207649231 -119.686767578125 87.73255920410156 -0.28939077258110046 -30.563552856445312 -34.19552230834961 0.004725636914372444 61.029876708984375 81.055419921875 0.008843387477099895 15.413043022155762 -11.904204368591309 0.3146214187145233 106.44862365722656 88.67376708984375 -0.35078075528144836 67.55843353271484 16.29986572265625 -0.23796917498111725 62.172603607177734 79.90457916259766 -0.1724732220172882 124.70160675048828 -7.12880802154541 0.21965813636779785 -22.71501350402832 -90.85731506347656 0.6354120969772339 46.12118911743164 88.80291748046875 0.3016238212585449 -143.190673828125 67.05611419677734 -0.45465734601020813 89.44837188720703 6.583033084869385 0.036133408546447754 65.20586395263672 -24.86009407043457 -0.06314468383789062 170.13177490234375 -0.2967732846736908 0.07472165673971176 128.4478759765625 -86.91751098632812 -0.08328404277563095 -157.7665252685547 -11.43046760559082 0.004124580416828394 152.9772186279297 -83.53102111816406 0.10331114381551743 16.677438735961914 -16.79410171508789 0.3091687262058258 -110.77583312988281 -89.10699462890625 -0.015121504664421082 27.782825469970703 -6.071534633636475 0.08305907249450684 104.20478057861328 -87.28970336914062 0.2593918442726135 -6.104753494262695 22.358633041381836 0.22633512318134308 -34.23518753051758 -88.38902282714844 -0.03375367820262909 42.761512756347656 -73.06768798828125 0.2677038609981537 113.63505554199219 -84.25458526611328 -0.02955465391278267 62.94410705566406 -2.0354795455932617 -0.027522513642907143 150.771728515625 89.59877014160156 0.6661329865455627 -104.61862182617188 48.58639144897461 0.0744149312376976 116.31038665771484 79.54068756103516 0.4488956928253174 121.72918701171875
-1.612349556594578 61.221765417816485 -0.34319694211245383 0.7146561741828918 10.257561683654785 8.532393455505371 -8.330180168151855 11.207870483398438 2.8373947143554688 6.954214096069336 -9.3906831741333 1.427125334739685 -7.532567501068115 15.651341438293457 -6.6028571128845215 12.21796989440918 -24.452072143554688 -10.597081184387207 -0.030556559562683105 1.7586369514465332 0.4868810772895813 -1.6868987083435059 -0.47245779633522034 0.1991826742887497 -0.5239972472190857 -0.7642478942871094 0.9031973481178284 50.638675689697266 33.63568115234375 18.821914672851562 -22.372468948364258 -19.379348754882812 62.23362350463867 0.47763943672180176 -4.191556930541992 0.20000383257865906 -0.5789525508880615 1.808089256286621 1.6729172468185425 -0.31058263778686523 0.2350534200668335 0.39296963810920715 1.271144986152649 -0.37171927094459534 1.182112216949463 7.5449395179748535 4.618969440460205 1.3321157693862915 -0.6267560124397278 -0.22414596378803253 -0.19259311258792877 1.7855254411697388 0.7712751030921936 0.1445302963256836 -0.4389123022556305 -0.5045292973518372 1.7974255084991455 9.029555320739746 0.1555778533220291 0.929003894329071 -0.5530723333358765 -0.5015249848365784 0.24907468259334564 1.331737756729126 -1.1579378843307495 0.6027638912200928 0.7839637994766235 0.6559180617332458 1.1942273378372192 -61.34331512451172 47.00167465209961 -14.81959056854248 23.23894500732422 -22.997177124023438 -63.27484130859375 0.13355609774589539 -12.408543586730957 1.0387800931930542 0.4751894176006317 -0.8567594289779663 1.5183640718460083 0.29778748750686646 -0.14454977214336395 0.6864703297615051 -0.21562914550304413 0.12312663346529007 0.9056475162506104 -7.190800666809082 5.652599811553955 0.9557848572731018 0.1083383783698082 0.3299044668674469 0.9574072360992432 -2.6894257068634033 1.8911243677139282 1.2963805198669434 -0.9999302625656128 1.347078561782837 0.7639790773391724 -9.238642692565918 1.703758716583252 0.9975536465644836 -1.0431910753250122 -0.29900553822517395 1.1393296718597412 -0.991572380065918 -0.8686923980712891 0.9043067693710327 0.2050648182630539 1.4841690063476562 0.8877091407775879 -27.701988220214844 -50.59700012207031 -19.562305450439453 -2.1311898231506348 64.58502197265625 4.718730926513672 0.7531689405441284 -7.19511604309082 -1.3727155923843384 0.12274924665689468 -1.6716734170913696 0.6054539680480957 12.130555152893066 -22.903499603271484 8.50767993927002 -1.8209047317504883 49.281982421875 0.6482058763504028 11.368128776550293 -15.52890396118164 21.994430541992188
-3.2863672370187618 63.37164259115887 -1.0363414011148613 5.960137844085693 17.790386199951172 4.839510440826416 -16.22492218017578 8.386651992797852 -0.765988826751709 9.520073890686035 -7.449899673461914 -0.29021769762039185 -10.580411911010742 17.845205307006836 -12.082013130187988 13.917564392089844 -24.544038772583008 -20.304853439331055 -0.24382899701595306 1.8384649753570557 1.3593553304672241 -1.5990650653839111 -0.4444159269332886 0.7787309288978577 -1.0232231616973877 -1.7700092792510986 2.360039710998535 57.034976959228516 31.285179138183594 15.901482582092285 -19.570724487304688 -7.797807693481445 39.74060821533203 1.3702830076217651 8.097085952758789 1.8830466270446777 -0.8031596541404724 1.4506257772445679 0.8044847249984741 -0.2966640591621399 -0.17634327709674835 0.8228230476379395 1.0426573753356934 -1.3472473621368408 1.064854383468628 7.737010955810547 4.359938621520996 2.138540506362915 -0.917674720287323 -0.4296383261680603 0.3990274965763092 2.3556363582611084 1.0327891111373901 0.7733204960823059 0.13675273954868317 -1.0887755155563354 2.3425374031066895 9.322233200073242 0.15153105556964874 0.8982143402099609 -0.4028908908367157 -0.16429154574871063 0.24688242375850677 0.33032873272895813 -1.6983999013900757 -0.0646314024925232 0.7514835000038147 0.22673915326595306 -0.341342568397522 -70.51821899414062 46.45585250854492 -4.460043430328369 21.848087310791016 -16.000442504882812 -53.85956954956055 -1.2031375169754028 -7.4019856452941895 0.9873653054237366 0.06839682161808014 -1.9427934885025024 1.6140769720077515 -0.07050562649965286 -0.3359793722629547 1.9531738758087158 -0.575376570224762 -0.5190917253494263 0.7961316108703613 -6.329308986663818 5.869892120361328 -0.34059444069862366 0.3248595595359802 0.04570314660668373 1.1383013725280762 -4.026611804962158 1.2006504535675049 0.8100431561470032 0.08160878717899323 0.88025963306427 1.490009069442749 -9.351152420043945 0.6228598356246948 0.31384581327438354 -1.5339373350143433 0.16744032502174377 -0.06667307764291763 -0.22786861658096313 -0.937053918838501 1.50658118724823 0.23334874212741852 1.014707326889038 1.322203516960144 -37.782508850097656 -59.131160736083984 -26.053831100463867 -3.5728557109832764 64.83417510986328 5.2322773933410645 3.958655834197998 2.0656344890594482 8.102602005004883 -0.43334802985191345 -1.2168344259262085 0.4516277611255646 0.7142288684844971 5.022780418395996 6.614297866821289 -2.0687789916992188 30.051149368286133 -0.2939785122871399 16.30270004272461 -17.085981369018555 35.80650329589844
